# xmcd
#
# Track frame offsets: 
#        150
#        19112
#        32710
#        46837
#        66955
#        90120
#        107670
#        125017
#        143302
#        162157
#        179467
#        200480
#
# Disc length: 2941 seconds
#
# Revision: 0
# Processed by: cddbd v1.4PL0 Copyright (c) Steve Scherf et al.
# Submitted via: ExactAudioCopy v0.90b4
#
DISCID=950b7b0c
DTITLE=Led Kaapana and the Original Ikona - Hawai'i Ka Pu'uwai
DYEAR=1998
DGENRE=Other
TTITLE0=Hawai'i Ka Pu'uwai
TTITLE1=Lei Ohu
TTITLE2=Pipeline
TTITLE3=Poni Mo'i
TTITLE4=Honauanau Paka
TTITLE5=Luau Hula
TTITLE6=Ka'iwa
TTITLE7=Kamalani O Keaukaha
TTITLE8=Come on Over
TTITLE9=Waiulu
TTITLE10=Ka'iwa (Uncut)
TTITLE11=Lei Ohu (Uncut)
EXTD=
EXTT0=
EXTT1=
EXTT2=
EXTT3=
EXTT4=
EXTT5=
EXTT6=
EXTT7=
EXTT8=
EXTT9=
EXTT10=
EXTT11=
PLAYORDER=
